<?xml version="1.0" standalone="no"?>
<!DOCTYPE svg PUBLIC "-//W3C//DTD SVG 20010904//EN"
 "http://www.w3.org/TR/2001/REC-SVG-20010904/DTD/svg10.dtd">
<svg version="1.0" xmlns="http://www.w3.org/2000/svg"
 width="194.000000pt" height="194.000000pt" viewBox="0 0 194.000000 194.000000"
 preserveAspectRatio="xMidYMid meet">
<metadata>
Created by potrace 1.14, written by Peter Selinger 2001-2017
</metadata>
<g transform="translate(0.000000,194.000000) scale(0.100000,-0.100000)"
fill="#000000" stroke="none">
<path d="M950 1880 c-8 -4 -37 -11 -65 -16 -52 -8 -62 -10 -70 -14 -3 -1 -8
-3 -12 -4 -5 -1 -19 -8 -33 -16 -14 -7 -27 -13 -30 -13 -8 1 -35 -10 -40 -16
-3 -4 -16 -12 -30 -19 -64 -33 -82 -45 -87 -58 -3 -8 -10 -14 -16 -14 -6 0
-32 -22 -59 -50 -26 -27 -46 -50 -43 -50 6 0 -4 -13 -33 -45 -7 -8 -10 -15 -5
-15 4 0 2 -4 -5 -9 -7 -4 -14 -18 -15 -29 -1 -12 -4 -22 -7 -22 -6 0 -8 -8
-12 -50 -1 -11 -5 -20 -9 -20 -4 0 -8 -15 -8 -32 -2 -50 -7 -77 -14 -84 -3 -4
-3 -14 2 -23 5 -9 7 -25 5 -36 -5 -28 -6 -55 -2 -92 3 -18 0 -33 -5 -33 -4 0
-5 -5 -1 -12 4 -6 8 -41 9 -78 2 -59 0 -67 -15 -63 -29 8 -49 -51 -44 -132 3
-69 10 -128 14 -132 1 -2 3 -6 4 -10 8 -33 22 -56 56 -92 24 -25 37 -47 34
-56 -4 -8 -1 -15 6 -15 6 0 9 -4 5 -9 -3 -5 1 -15 8 -23 7 -7 17 -24 24 -38
12 -27 30 -51 79 -106 20 -23 30 -42 27 -55 -3 -10 -9 -16 -13 -14 -12 7 -80
-64 -81 -84 -2 -27 3 -66 9 -76 4 -5 7 -13 8 -17 1 -5 3 -10 4 -13 4 -7 5 -15
14 -57 l8 -38 539 0 c297 0 539 3 540 8 2 27 12 64 35 131 33 96 36 145 9 165
-25 20 -103 46 -142 49 -27 2 -68 27 -45 27 6 0 12 8 16 18 15 44 76 124 91
118 7 -2 16 -2 19 2 4 3 16 7 28 9 12 2 27 8 35 14 7 6 13 9 13 5 0 -3 8 2 19
12 10 9 34 31 54 47 20 17 37 36 37 44 0 8 3 11 7 8 16 -16 65 145 57 186 -11
59 -14 68 -28 88 -8 11 -24 28 -35 36 -19 13 -21 21 -15 61 3 26 7 77 8 114 0
38 5 68 9 68 5 0 5 5 1 11 -4 7 -8 37 -10 68 -8 152 -60 281 -154 381 -33 35
-60 61 -60 57 0 -4 -10 1 -22 13 -12 11 -28 20 -35 20 -7 0 -13 4 -13 8 0 11
-105 58 -160 72 -25 6 -52 14 -60 17 -24 10 -41 12 -120 18 -41 4 -79 8 -85 9
-5 2 -19 0 -30 -4 -11 -4 -27 -4 -35 0 -9 5 -22 5 -30 0z"/>
</g>
</svg>
